<svg id="Layer_1" data-name="Layer 1" xmlns="http://www.w3.org/2000/svg" viewBox="0 0 133.93 39.64"><defs><style>.cls-1{fill:#fff;}</style></defs><title>theNJK_white</title><path class="cls-1" d="M73.1,39.1H65.2L53.66,13.45V39.1h-7.9V0h7.9L65.23,25.67V0H73.1Z"/><path class="cls-1" d="M92.3,0h7.9V27.07A12.94,12.94,0,0,1,97,36.2a10.63,10.63,0,0,1-8.17,3.44q-5.37,0-8.35-3.2t-3-8.89h7.92q0,5.53,3.41,5.54t3.44-6.4Z"/><path class="cls-1" d="M117.41,24l-3.11,3.92V39.1h-7.9V0h7.9V17.05l2.49-4.21L124.07,0h9.67l-11.2,17.19L133.93,39.1h-9.38Z"/><path class="cls-1" d="M5.66,16.83v4.35H8.37v2.37H5.66V34.71A3.08,3.08,0,0,0,6,36.32a1.32,1.32,0,0,0,1.2.55,3.74,3.74,0,0,0,1.17-.2l0,2.47a6.41,6.41,0,0,1-2,.33,3.1,3.1,0,0,1-2.66-1.24,5.87,5.87,0,0,1-.91-3.52V23.55H0V21.18H2.74V16.83Z"/><path class="cls-1" d="M14.79,23a5.19,5.19,0,0,1,4.29-2.17q4.76,0,4.83,6.35V39.14H21V27.34a4.9,4.9,0,0,0-.7-3,2.55,2.55,0,0,0-2.12-.89,3,3,0,0,0-2,.73,5.42,5.42,0,0,0-1.4,1.91V39.14H11.85V13.64h2.94Z"/><path class="cls-1" d="M34.7,39.47a6.54,6.54,0,0,1-5.15-2,8.71,8.71,0,0,1-1.83-5.87V29.43a10.1,10.1,0,0,1,1.76-6.3,5.8,5.8,0,0,1,4.89-2.28,5.61,5.61,0,0,1,4.71,2q1.56,2,1.59,6.26V31h-10v.41a6.57,6.57,0,0,0,1.08,4.2A3.83,3.83,0,0,0,34.86,37a5.18,5.18,0,0,0,2.29-.49A5.86,5.86,0,0,0,39,34.92l1.52,1.86A6.64,6.64,0,0,1,34.7,39.47Zm-.33-16.1a3.1,3.1,0,0,0-2.71,1.25,7.47,7.47,0,0,0-1,3.9h7.08v-.4a6.89,6.89,0,0,0-.93-3.66A2.82,2.82,0,0,0,34.37,23.37Z"/></svg>